<svg width="690.0" height="1624.0" viewBox="0 0 690.0 1624.0" xmlns="http://www.w3.org/2000/svg">
<style>/* font and background color specifications */
svg {
    font-family: SFMono-Regular,Consolas,Liberation Mono,Menlo,monospace;
    font-size: 14px;
    font-kerning: normal;
    text-rendering: optimizeLegibility;
    fill: #24292e;
}

/* default key styling */
rect {
    fill: #f6f8fa;
    stroke: #c9cccf;
    stroke-width: 1;
}

/* color accent for combo boxes */
rect.combo {
    fill: #cdf;
}

/* color accent for held keys */
rect.held, rect.combo.held {
    fill: #fdd;
}

/* color accent for ghost (optional) keys */
rect.ghost, rect.combo.ghost {
    fill: #fff0;
    stroke-width: 0;
}

text {
    text-anchor: middle;
    dominant-baseline: middle;
}

/* styling for layer labels */
text.label {
    font-weight: bold;
    text-anchor: start;
    stroke: white;
    stroke-width: 2;
    paint-order: stroke;
}

/* styling for combo tap, and key hold/shifted label text */
text.combo, text.hold, text.shifted {
    font-size: 11px;
}

text.hold {
    text-anchor: middle;
    dominant-baseline: auto;
}

text.shifted {
    text-anchor: middle;
    dominant-baseline: hanging;
}

/* styling for hold/shifted label text in combo box */
text.combo.hold, text.combo.shifted {
    font-size: 8px;
}

/* styling for combo dendrons */
path {
    stroke-width: 1;
    stroke: gray;
    fill: none;
}
</style>
<g class="layer-AL1">
<text x="30.0" y="28.0" class="label">AL1:</text>
<rect rx="6.0" ry="6.0" x="32.0" y="58.0" width="56.0" height="52.0" class="ghost"/>
<rect rx="6.0" ry="6.0" x="92.0" y="58.0" width="56.0" height="52.0" class=""/>
<text x="120.0" y="84.0" class="tap">L</text>
<text x="120.0" y="105.0" class="hold">CTL</text>
<rect rx="6.0" ry="6.0" x="152.0" y="58.0" width="56.0" height="52.0" class=""/>
<text x="180.0" y="84.0" class="tap">G</text>
<text x="180.0" y="105.0" class="hold">ALT</text>
<rect rx="6.0" ry="6.0" x="212.0" y="58.0" width="56.0" height="52.0" class=""/>
<text x="240.0" y="84.0" class="tap">D</text>
<text x="240.0" y="105.0" class="hold">GUI</text>
<rect rx="6.0" ry="6.0" x="272.0" y="58.0" width="56.0" height="52.0" class="ghost"/>
<rect rx="6.0" ry="6.0" x="362.0" y="58.0" width="56.0" height="52.0" class="ghost"/>
<rect rx="6.0" ry="6.0" x="422.0" y="58.0" width="56.0" height="52.0" class=""/>
<text x="450.0" y="84.0" class="tap">H</text>
<text x="450.0" y="105.0" class="hold">GUI</text>
<rect rx="6.0" ry="6.0" x="482.0" y="58.0" width="56.0" height="52.0" class=""/>
<text x="510.0" y="84.0" class="tap">U</text>
<text x="510.0" y="105.0" class="hold">ALT</text>
<rect rx="6.0" ry="6.0" x="542.0" y="58.0" width="56.0" height="52.0" class=""/>
<text x="570.0" y="84.0" class="tap">O</text>
<text x="570.0" y="105.0" class="hold">CTL</text>
<rect rx="6.0" ry="6.0" x="602.0" y="58.0" width="56.0" height="52.0" class="ghost"/>
<rect rx="6.0" ry="6.0" x="32.0" y="114.0" width="56.0" height="52.0" class=""/>
<text x="60.0" y="140.0" class="tap">I</text>
<text x="60.0" y="161.0" class="hold">NUM</text>
<rect rx="6.0" ry="6.0" x="92.0" y="114.0" width="56.0" height="52.0" class=""/>
<text x="120.0" y="140.0" class="tap">S</text>
<text x="120.0" y="161.0" class="hold">SYM2</text>
<rect rx="6.0" ry="6.0" x="152.0" y="114.0" width="56.0" height="52.0" class=""/>
<text x="180.0" y="140.0" class="tap">R</text>
<text x="180.0" y="161.0" class="hold">SYM1</text>
<rect rx="6.0" ry="6.0" x="212.0" y="114.0" width="56.0" height="52.0" class=""/>
<text x="240.0" y="140.0" class="tap">T</text>
<text x="240.0" y="161.0" class="hold">SYS</text>
<rect rx="6.0" ry="6.0" x="272.0" y="114.0" width="56.0" height="52.0" class="ghost"/>
<rect rx="6.0" ry="6.0" x="362.0" y="114.0" width="56.0" height="52.0" class="ghost"/>
<rect rx="6.0" ry="6.0" x="422.0" y="114.0" width="56.0" height="52.0" class=""/>
<text x="450.0" y="140.0" class="tap">N</text>
<text x="450.0" y="161.0" class="hold">SYS</text>
<rect rx="6.0" ry="6.0" x="482.0" y="114.0" width="56.0" height="52.0" class=""/>
<text x="510.0" y="140.0" class="tap">E</text>
<text x="510.0" y="161.0" class="hold">SYM1</text>
<rect rx="6.0" ry="6.0" x="542.0" y="114.0" width="56.0" height="52.0" class=""/>
<text x="570.0" y="140.0" class="tap">A</text>
<text x="570.0" y="161.0" class="hold">SYM2</text>
<rect rx="6.0" ry="6.0" x="602.0" y="114.0" width="56.0" height="52.0" class=""/>
<text x="630.0" y="140.0" class="tap">C</text>
<text x="630.0" y="161.0" class="hold">NUM</text>
<rect rx="6.0" ry="6.0" x="212.0" y="170.0" width="56.0" height="52.0" class=""/>
<text x="240.0" y="196.0" class="tap">SPC</text>
<text x="240.0" y="217.0" class="hold">MEH</text>
<rect rx="6.0" ry="6.0" x="272.0" y="170.0" width="56.0" height="52.0" class=""/>
<text x="300.0" y="196.0" class="tap">SHFT</text>
<rect rx="6.0" ry="6.0" x="362.0" y="170.0" width="56.0" height="52.0" class=""/>
<text x="390.0" y="196.0" class="tap">REP</text>
<rect rx="6.0" ry="6.0" x="422.0" y="170.0" width="56.0" height="52.0" class=""/>
<text x="450.0" y="196.0" class="tap">AL2</text>
<rect rx="6.0" ry="6.0" x="526.0" y="71.0" width="28.0" height="26.0" class="combo"/>
<text x="540.0" y="84.0" class="combo">BSPC</text>
<rect rx="6.0" ry="6.0" x="526.0" y="127.0" width="28.0" height="26.0" class="combo"/>
<text x="540.0" y="140.0" class="combo">ENT</text>
<rect rx="6.0" ry="6.0" x="136.0" y="71.0" width="28.0" height="26.0" class="combo"/>
<text x="150.0" y="84.0" class="combo">ESC</text>
<rect rx="6.0" ry="6.0" x="136.0" y="127.0" width="28.0" height="26.0" class="combo"/>
<text x="150.0" y="140.0" class="combo">TAB</text>
</g>
<g class="layer-AL2">
<text x="30.0" y="252.0" class="label">AL2:</text>
<rect rx="6.0" ry="6.0" x="32.0" y="282.0" width="56.0" height="52.0" class="ghost"/>
<rect rx="6.0" ry="6.0" x="92.0" y="282.0" width="56.0" height="52.0" class=""/>
<text x="120.0" y="308.0" class="tap">V</text>
<rect rx="6.0" ry="6.0" x="152.0" y="282.0" width="56.0" height="52.0" class=""/>
<text x="180.0" y="308.0" class="tap">W</text>
<rect rx="6.0" ry="6.0" x="212.0" y="282.0" width="56.0" height="52.0" class=""/>
<text x="240.0" y="308.0" class="tap">M</text>
<rect rx="6.0" ry="6.0" x="272.0" y="282.0" width="56.0" height="52.0" class="ghost"/>
<rect rx="6.0" ry="6.0" x="362.0" y="282.0" width="56.0" height="52.0" class="ghost"/>
<rect rx="6.0" ry="6.0" x="422.0" y="282.0" width="56.0" height="52.0" class=""/>
<text x="450.0" y="308.0" class="tap">F</text>
<rect rx="6.0" ry="6.0" x="482.0" y="282.0" width="56.0" height="52.0" class=""/>
<text x="510.0" y="308.0" class="tap">&#x27;</text>
<rect rx="6.0" ry="6.0" x="542.0" y="282.0" width="56.0" height="52.0" class=""/>
<text x="570.0" y="308.0" class="tap">Z</text>
<rect rx="6.0" ry="6.0" x="602.0" y="282.0" width="56.0" height="52.0" class="ghost"/>
<rect rx="6.0" ry="6.0" x="32.0" y="338.0" width="56.0" height="52.0" class=""/>
<text x="60.0" y="364.0" class="tap">Q</text>
<rect rx="6.0" ry="6.0" x="92.0" y="338.0" width="56.0" height="52.0" class=""/>
<text x="120.0" y="364.0" class="tap">J</text>
<rect rx="6.0" ry="6.0" x="152.0" y="338.0" width="56.0" height="52.0" class=""/>
<text x="180.0" y="364.0" class="tap">P</text>
<rect rx="6.0" ry="6.0" x="212.0" y="338.0" width="56.0" height="52.0" class=""/>
<text x="240.0" y="364.0" class="tap">K</text>
<rect rx="6.0" ry="6.0" x="272.0" y="338.0" width="56.0" height="52.0" class="ghost"/>
<rect rx="6.0" ry="6.0" x="362.0" y="338.0" width="56.0" height="52.0" class="ghost"/>
<rect rx="6.0" ry="6.0" x="422.0" y="338.0" width="56.0" height="52.0" class=""/>
<text x="450.0" y="364.0" class="tap">B</text>
<rect rx="6.0" ry="6.0" x="482.0" y="338.0" width="56.0" height="52.0" class=""/>
<text x="510.0" y="364.0" class="tap">.</text>
<text x="510.0" y="385.0" class="hold">,</text>
<rect rx="6.0" ry="6.0" x="542.0" y="338.0" width="56.0" height="52.0" class=""/>
<text x="570.0" y="364.0" class="tap">X</text>
<rect rx="6.0" ry="6.0" x="602.0" y="338.0" width="56.0" height="52.0" class=""/>
<text x="630.0" y="364.0" class="tap">Y</text>
<rect rx="6.0" ry="6.0" x="212.0" y="394.0" width="56.0" height="52.0" class=""/>
<text x="240.0" y="420.0" class="tap">trans</text>
<rect rx="6.0" ry="6.0" x="272.0" y="394.0" width="56.0" height="52.0" class=""/>
<text x="300.0" y="420.0" class="tap">trans</text>
<rect rx="6.0" ry="6.0" x="362.0" y="394.0" width="56.0" height="52.0" class=""/>
<text x="390.0" y="420.0" class="tap">trans</text>
<rect rx="6.0" ry="6.0" x="422.0" y="394.0" width="56.0" height="52.0" class=""/>
<text x="450.0" y="420.0" class="tap">AL2U</text>
</g>
<g class="layer-SYM1">
<text x="30.0" y="476.0" class="label">SYM1:</text>
<rect rx="6.0" ry="6.0" x="32.0" y="506.0" width="56.0" height="52.0" class="ghost"/>
<rect rx="6.0" ry="6.0" x="92.0" y="506.0" width="56.0" height="52.0" class=""/>
<text x="120.0" y="532.0" class="tap">!</text>
<rect rx="6.0" ry="6.0" x="152.0" y="506.0" width="56.0" height="52.0" class=""/>
<text x="180.0" y="532.0" class="tap">@</text>
<rect rx="6.0" ry="6.0" x="212.0" y="506.0" width="56.0" height="52.0" class=""/>
<text x="240.0" y="532.0" class="tap">#</text>
<rect rx="6.0" ry="6.0" x="272.0" y="506.0" width="56.0" height="52.0" class="ghost"/>
<rect rx="6.0" ry="6.0" x="362.0" y="506.0" width="56.0" height="52.0" class="ghost"/>
<rect rx="6.0" ry="6.0" x="422.0" y="506.0" width="56.0" height="52.0" class=""/>
<text x="450.0" y="532.0" class="tap">&amp;</text>
<rect rx="6.0" ry="6.0" x="482.0" y="506.0" width="56.0" height="52.0" class=""/>
<text x="510.0" y="532.0" class="tap">*</text>
<rect rx="6.0" ry="6.0" x="542.0" y="506.0" width="56.0" height="52.0" class=""/>
<text x="570.0" y="532.0" class="tap">?</text>
<rect rx="6.0" ry="6.0" x="602.0" y="506.0" width="56.0" height="52.0" class="ghost"/>
<rect rx="6.0" ry="6.0" x="32.0" y="562.0" width="56.0" height="52.0" class=""/>
<text x="60.0" y="588.0" class="tap">`</text>
<rect rx="6.0" ry="6.0" x="92.0" y="562.0" width="56.0" height="52.0" class=""/>
<text x="120.0" y="588.0" class="tap">$</text>
<rect rx="6.0" ry="6.0" x="152.0" y="562.0" width="56.0" height="52.0" class="held"/>
<text x="180.0" y="588.0" class="held tap">%</text>
<rect rx="6.0" ry="6.0" x="212.0" y="562.0" width="56.0" height="52.0" class=""/>
<text x="240.0" y="588.0" class="tap">^</text>
<rect rx="6.0" ry="6.0" x="272.0" y="562.0" width="56.0" height="52.0" class="ghost"/>
<rect rx="6.0" ry="6.0" x="362.0" y="562.0" width="56.0" height="52.0" class="ghost"/>
<rect rx="6.0" ry="6.0" x="422.0" y="562.0" width="56.0" height="52.0" class=""/>
<text x="450.0" y="588.0" class="tap">_</text>
<rect rx="6.0" ry="6.0" x="482.0" y="562.0" width="56.0" height="52.0" class="held"/>
<text x="510.0" y="588.0" class="held tap">\</text>
<rect rx="6.0" ry="6.0" x="542.0" y="562.0" width="56.0" height="52.0" class=""/>
<text x="570.0" y="588.0" class="tap">|</text>
<rect rx="6.0" ry="6.0" x="602.0" y="562.0" width="56.0" height="52.0" class=""/>
<text x="630.0" y="588.0" class="tap">~</text>
<rect rx="6.0" ry="6.0" x="212.0" y="618.0" width="56.0" height="52.0" class=""/>
<rect rx="6.0" ry="6.0" x="272.0" y="618.0" width="56.0" height="52.0" class=""/>
<rect rx="6.0" ry="6.0" x="362.0" y="618.0" width="56.0" height="52.0" class=""/>
<rect rx="6.0" ry="6.0" x="422.0" y="618.0" width="56.0" height="52.0" class=""/>
<text x="450.0" y="644.0" class="tap">RGUI</text>
<path d="M510.0,617.0 h-54.0 a6.0,6.0 0 0 1 -6.0,-6.0 v-4.333333333333332"/>
<path d="M510.0,617.0 h54.0 a6.0,6.0 0 0 0 6.0,-6.0 v-4.333333333333332"/>
<rect rx="6.0" ry="6.0" x="496.0" y="604.0" width="28.0" height="26.0" class="combo"/>
<text x="510.0" y="617.0" class="combo">BT</text>
</g>
<g class="layer-SYM2">
<text x="30.0" y="700.0" class="label">SYM2:</text>
<rect rx="6.0" ry="6.0" x="32.0" y="730.0" width="56.0" height="52.0" class="ghost"/>
<rect rx="6.0" ry="6.0" x="92.0" y="730.0" width="56.0" height="52.0" class=""/>
<rect rx="6.0" ry="6.0" x="152.0" y="730.0" width="56.0" height="52.0" class=""/>
<text x="180.0" y="756.0" class="tap">&lt;</text>
<rect rx="6.0" ry="6.0" x="212.0" y="730.0" width="56.0" height="52.0" class=""/>
<text x="240.0" y="756.0" class="tap">&gt;</text>
<rect rx="6.0" ry="6.0" x="272.0" y="730.0" width="56.0" height="52.0" class="ghost"/>
<rect rx="6.0" ry="6.0" x="362.0" y="730.0" width="56.0" height="52.0" class="ghost"/>
<rect rx="6.0" ry="6.0" x="422.0" y="730.0" width="56.0" height="52.0" class=""/>
<text x="450.0" y="756.0" class="tap">(</text>
<rect rx="6.0" ry="6.0" x="482.0" y="730.0" width="56.0" height="52.0" class=""/>
<text x="510.0" y="756.0" class="tap">)</text>
<rect rx="6.0" ry="6.0" x="542.0" y="730.0" width="56.0" height="52.0" class=""/>
<text x="570.0" y="756.0" class="tap">{</text>
<rect rx="6.0" ry="6.0" x="602.0" y="730.0" width="56.0" height="52.0" class="ghost"/>
<rect rx="6.0" ry="6.0" x="32.0" y="786.0" width="56.0" height="52.0" class=""/>
<rect rx="6.0" ry="6.0" x="92.0" y="786.0" width="56.0" height="52.0" class="held"/>
<rect rx="6.0" ry="6.0" x="152.0" y="786.0" width="56.0" height="52.0" class=""/>
<text x="180.0" y="812.0" class="tap">~</text>
<rect rx="6.0" ry="6.0" x="212.0" y="786.0" width="56.0" height="52.0" class=""/>
<text x="240.0" y="812.0" class="tap">_</text>
<rect rx="6.0" ry="6.0" x="272.0" y="786.0" width="56.0" height="52.0" class="ghost"/>
<rect rx="6.0" ry="6.0" x="362.0" y="786.0" width="56.0" height="52.0" class="ghost"/>
<rect rx="6.0" ry="6.0" x="422.0" y="786.0" width="56.0" height="52.0" class=""/>
<text x="450.0" y="812.0" class="tap">[</text>
<rect rx="6.0" ry="6.0" x="482.0" y="786.0" width="56.0" height="52.0" class=""/>
<text x="510.0" y="812.0" class="tap">]</text>
<rect rx="6.0" ry="6.0" x="542.0" y="786.0" width="56.0" height="52.0" class="held"/>
<text x="570.0" y="812.0" class="held tap">}</text>
<rect rx="6.0" ry="6.0" x="602.0" y="786.0" width="56.0" height="52.0" class=""/>
<rect rx="6.0" ry="6.0" x="212.0" y="842.0" width="56.0" height="52.0" class=""/>
<rect rx="6.0" ry="6.0" x="272.0" y="842.0" width="56.0" height="52.0" class=""/>
<rect rx="6.0" ry="6.0" x="362.0" y="842.0" width="56.0" height="52.0" class=""/>
<rect rx="6.0" ry="6.0" x="422.0" y="842.0" width="56.0" height="52.0" class=""/>
<text x="450.0" y="868.0" class="tap">RGUI</text>
</g>
<g class="layer-NUM">
<text x="30.0" y="924.0" class="label">NUM:</text>
<rect rx="6.0" ry="6.0" x="32.0" y="954.0" width="56.0" height="52.0" class="ghost"/>
<rect rx="6.0" ry="6.0" x="92.0" y="954.0" width="56.0" height="52.0" class=""/>
<text x="120.0" y="980.0" class="tap">.</text>
<rect rx="6.0" ry="6.0" x="152.0" y="954.0" width="56.0" height="52.0" class=""/>
<text x="180.0" y="980.0" class="tap">,</text>
<rect rx="6.0" ry="6.0" x="212.0" y="954.0" width="56.0" height="52.0" class=""/>
<text x="240.0" y="980.0" class="tap">;</text>
<rect rx="6.0" ry="6.0" x="272.0" y="954.0" width="56.0" height="52.0" class="ghost"/>
<rect rx="6.0" ry="6.0" x="362.0" y="954.0" width="56.0" height="52.0" class="ghost"/>
<rect rx="6.0" ry="6.0" x="422.0" y="954.0" width="56.0" height="52.0" class=""/>
<text x="450.0" y="980.0" class="tap">1</text>
<rect rx="6.0" ry="6.0" x="482.0" y="954.0" width="56.0" height="52.0" class=""/>
<text x="510.0" y="980.0" class="tap">2</text>
<rect rx="6.0" ry="6.0" x="542.0" y="954.0" width="56.0" height="52.0" class=""/>
<text x="570.0" y="980.0" class="tap">3</text>
<rect rx="6.0" ry="6.0" x="602.0" y="954.0" width="56.0" height="52.0" class="ghost"/>
<rect rx="6.0" ry="6.0" x="32.0" y="1010.0" width="56.0" height="52.0" class="held"/>
<text x="60.0" y="1036.0" class="held tap">/</text>
<rect rx="6.0" ry="6.0" x="92.0" y="1010.0" width="56.0" height="52.0" class=""/>
<text x="120.0" y="1036.0" class="tap">-</text>
<rect rx="6.0" ry="6.0" x="152.0" y="1010.0" width="56.0" height="52.0" class=""/>
<text x="180.0" y="1036.0" class="tap">+</text>
<rect rx="6.0" ry="6.0" x="212.0" y="1010.0" width="56.0" height="52.0" class=""/>
<text x="240.0" y="1036.0" class="tap">:</text>
<rect rx="6.0" ry="6.0" x="272.0" y="1010.0" width="56.0" height="52.0" class="ghost"/>
<rect rx="6.0" ry="6.0" x="362.0" y="1010.0" width="56.0" height="52.0" class="ghost"/>
<rect rx="6.0" ry="6.0" x="422.0" y="1010.0" width="56.0" height="52.0" class=""/>
<text x="450.0" y="1036.0" class="tap">4</text>
<rect rx="6.0" ry="6.0" x="482.0" y="1010.0" width="56.0" height="52.0" class=""/>
<text x="510.0" y="1036.0" class="tap">5</text>
<rect rx="6.0" ry="6.0" x="542.0" y="1010.0" width="56.0" height="52.0" class=""/>
<text x="570.0" y="1036.0" class="tap">6</text>
<rect rx="6.0" ry="6.0" x="602.0" y="1010.0" width="56.0" height="52.0" class="held"/>
<text x="630.0" y="1036.0" class="held tap">=</text>
<rect rx="6.0" ry="6.0" x="212.0" y="1066.0" width="56.0" height="52.0" class=""/>
<text x="240.0" y="1092.0" class="tap">SHFT</text>
<rect rx="6.0" ry="6.0" x="272.0" y="1066.0" width="56.0" height="52.0" class=""/>
<text x="300.0" y="1092.0" class="tap">=</text>
<rect rx="6.0" ry="6.0" x="362.0" y="1066.0" width="56.0" height="52.0" class=""/>
<rect rx="6.0" ry="6.0" x="422.0" y="1066.0" width="56.0" height="52.0" class=""/>
<text x="450.0" y="1092.0" class="tap">GUI</text>
<rect rx="6.0" ry="6.0" x="466.0" y="967.0" width="28.0" height="26.0" class="combo"/>
<text x="480.0" y="980.0" class="combo">7</text>
<rect rx="6.0" ry="6.0" x="526.0" y="967.0" width="28.0" height="26.0" class="combo"/>
<text x="540.0" y="980.0" class="combo">8</text>
<rect rx="6.0" ry="6.0" x="466.0" y="1023.0" width="28.0" height="26.0" class="combo"/>
<text x="480.0" y="1036.0" class="combo">9</text>
<rect rx="6.0" ry="6.0" x="526.0" y="1023.0" width="28.0" height="26.0" class="combo"/>
<text x="540.0" y="1036.0" class="combo">0</text>
</g>
<g class="layer-SYS">
<text x="30.0" y="1148.0" class="label">SYS:</text>
<rect rx="6.0" ry="6.0" x="32.0" y="1178.0" width="56.0" height="52.0" class="ghost"/>
<rect rx="6.0" ry="6.0" x="92.0" y="1178.0" width="56.0" height="52.0" class=""/>
<text x="120.0" y="1204.0" class="tap">ESC</text>
<rect rx="6.0" ry="6.0" x="152.0" y="1178.0" width="56.0" height="52.0" class=""/>
<text x="180.0" y="1204.0" class="tap">PTAB</text>
<rect rx="6.0" ry="6.0" x="212.0" y="1178.0" width="56.0" height="52.0" class=""/>
<text x="240.0" y="1204.0" class="tap">NTAB</text>
<rect rx="6.0" ry="6.0" x="272.0" y="1178.0" width="56.0" height="52.0" class="ghost"/>
<rect rx="6.0" ry="6.0" x="362.0" y="1178.0" width="56.0" height="52.0" class="ghost"/>
<rect rx="6.0" ry="6.0" x="422.0" y="1178.0" width="56.0" height="52.0" class=""/>
<text x="450.0" y="1204.0" class="tap">CPY</text>
<text x="450.0" y="1225.0" class="hold">PST</text>
<rect rx="6.0" ry="6.0" x="482.0" y="1178.0" width="56.0" height="52.0" class=""/>
<text x="510.0" y="1204.0" class="tap">↑</text>
<rect rx="6.0" ry="6.0" x="542.0" y="1178.0" width="56.0" height="52.0" class=""/>
<text x="570.0" y="1204.0" class="tap">BSPC</text>
<rect rx="6.0" ry="6.0" x="602.0" y="1178.0" width="56.0" height="52.0" class="ghost"/>
<rect rx="6.0" ry="6.0" x="32.0" y="1234.0" width="56.0" height="52.0" class=""/>
<text x="60.0" y="1260.0" class="tap">TAB</text>
<rect rx="6.0" ry="6.0" x="92.0" y="1234.0" width="56.0" height="52.0" class=""/>
<text x="120.0" y="1260.0" class="tap">DEL</text>
<rect rx="6.0" ry="6.0" x="152.0" y="1234.0" width="56.0" height="52.0" class=""/>
<text x="180.0" y="1260.0" class="tap">BCK</text>
<rect rx="6.0" ry="6.0" x="212.0" y="1234.0" width="56.0" height="52.0" class="held"/>
<text x="240.0" y="1260.0" class="held tap">FWD</text>
<rect rx="6.0" ry="6.0" x="272.0" y="1234.0" width="56.0" height="52.0" class="ghost"/>
<rect rx="6.0" ry="6.0" x="362.0" y="1234.0" width="56.0" height="52.0" class="ghost"/>
<rect rx="6.0" ry="6.0" x="422.0" y="1234.0" width="56.0" height="52.0" class="held"/>
<text x="450.0" y="1260.0" class="held tap">←</text>
<rect rx="6.0" ry="6.0" x="482.0" y="1234.0" width="56.0" height="52.0" class=""/>
<text x="510.0" y="1260.0" class="tap">↓</text>
<rect rx="6.0" ry="6.0" x="542.0" y="1234.0" width="56.0" height="52.0" class=""/>
<text x="570.0" y="1260.0" class="tap">→</text>
<text x="570.0" y="1281.0" class="hold">SCRS</text>
<rect rx="6.0" ry="6.0" x="602.0" y="1234.0" width="56.0" height="52.0" class=""/>
<text x="630.0" y="1260.0" class="tap">ENT</text>
<rect rx="6.0" ry="6.0" x="212.0" y="1290.0" width="56.0" height="52.0" class=""/>
<text x="240.0" y="1316.0" class="tap">SHFT</text>
<rect rx="6.0" ry="6.0" x="272.0" y="1290.0" width="56.0" height="52.0" class=""/>
<text x="300.0" y="1316.0" class="tap">ALT</text>
<rect rx="6.0" ry="6.0" x="362.0" y="1290.0" width="56.0" height="52.0" class=""/>
<text x="390.0" y="1316.0" class="tap">ALT</text>
<rect rx="6.0" ry="6.0" x="422.0" y="1290.0" width="56.0" height="52.0" class=""/>
<text x="450.0" y="1316.0" class="tap">GUI</text>
<rect rx="6.0" ry="6.0" x="466.0" y="1247.0" width="28.0" height="26.0" class="combo"/>
<text x="480.0" y="1260.0" class="combo">RCLK</text>
<rect rx="6.0" ry="6.0" x="466.0" y="1191.0" width="28.0" height="26.0" class="combo"/>
<text x="480.0" y="1204.0" class="combo">LCLK</text>
</g>
<g class="layer-BT">
<text x="30.0" y="1372.0" class="label">BT:</text>
<rect rx="6.0" ry="6.0" x="32.0" y="1402.0" width="56.0" height="52.0" class="ghost"/>
<rect rx="6.0" ry="6.0" x="92.0" y="1402.0" width="56.0" height="52.0" class=""/>
<text x="120.0" y="1428.0" class="tap">BTPRV</text>
<rect rx="6.0" ry="6.0" x="152.0" y="1402.0" width="56.0" height="52.0" class=""/>
<text x="180.0" y="1428.0" class="tap">BTNXT</text>
<rect rx="6.0" ry="6.0" x="212.0" y="1402.0" width="56.0" height="52.0" class=""/>
<rect rx="6.0" ry="6.0" x="272.0" y="1402.0" width="56.0" height="52.0" class="ghost"/>
<rect rx="6.0" ry="6.0" x="362.0" y="1402.0" width="56.0" height="52.0" class="ghost"/>
<rect rx="6.0" ry="6.0" x="422.0" y="1402.0" width="56.0" height="52.0" class=""/>
<rect rx="6.0" ry="6.0" x="482.0" y="1402.0" width="56.0" height="52.0" class=""/>
<rect rx="6.0" ry="6.0" x="542.0" y="1402.0" width="56.0" height="52.0" class=""/>
<rect rx="6.0" ry="6.0" x="602.0" y="1402.0" width="56.0" height="52.0" class="ghost"/>
<rect rx="6.0" ry="6.0" x="32.0" y="1458.0" width="56.0" height="52.0" class=""/>
<rect rx="6.0" ry="6.0" x="92.0" y="1458.0" width="56.0" height="52.0" class=""/>
<rect rx="6.0" ry="6.0" x="152.0" y="1458.0" width="56.0" height="52.0" class=""/>
<rect rx="6.0" ry="6.0" x="212.0" y="1458.0" width="56.0" height="52.0" class=""/>
<text x="240.0" y="1484.0" class="tap">BOOT</text>
<rect rx="6.0" ry="6.0" x="272.0" y="1458.0" width="56.0" height="52.0" class="ghost"/>
<rect rx="6.0" ry="6.0" x="362.0" y="1458.0" width="56.0" height="52.0" class="ghost"/>
<rect rx="6.0" ry="6.0" x="422.0" y="1458.0" width="56.0" height="52.0" class=""/>
<text x="450.0" y="1484.0" class="tap">BOOT</text>
<rect rx="6.0" ry="6.0" x="482.0" y="1458.0" width="56.0" height="52.0" class=""/>
<rect rx="6.0" ry="6.0" x="542.0" y="1458.0" width="56.0" height="52.0" class=""/>
<rect rx="6.0" ry="6.0" x="602.0" y="1458.0" width="56.0" height="52.0" class=""/>
<text x="630.0" y="1484.0" class="tap">BTCLR</text>
<rect rx="6.0" ry="6.0" x="212.0" y="1514.0" width="56.0" height="52.0" class=""/>
<text x="240.0" y="1540.0" class="tap">AL1</text>
<rect rx="6.0" ry="6.0" x="272.0" y="1514.0" width="56.0" height="52.0" class=""/>
<rect rx="6.0" ry="6.0" x="362.0" y="1514.0" width="56.0" height="52.0" class=""/>
<rect rx="6.0" ry="6.0" x="422.0" y="1514.0" width="56.0" height="52.0" class=""/>
</g>
</svg>
